<svg xmlns="http://www.w3.org/2000/svg" viewBox="0 0 960 540" width="960" height="540" role="img" aria-label="Abstract graphic: contrast, check, and layout grid suggesting accessibility standards">
  <defs>
    <linearGradient id="ds-accent" x1="0%" y1="0%" x2="0%" y2="100%">
      <stop offset="0%" stop-color="#0c4a6e"/>
      <stop offset="100%" stop-color="#0369a1"/>
    </linearGradient>
  </defs>
  <rect width="960" height="540" fill="#ffffff"/>
  <!-- subtle grid -->
  <g opacity="0.45" stroke="#e2e8f0" stroke-width="1" fill="none">
    <path d="M80 60v420M160 60v420M240 60v420M320 60v420M400 60v420M480 60v420M560 60v420M640 60v420M720 60v420M800 60v420M880 60v420"/>
    <path d="M60 100h840M60 180h840M60 260h840M60 340h840M60 420h840"/>
  </g>
  <!-- main frame -->
  <rect x="140" y="100" width="680" height="340" rx="4" fill="#ffffff" stroke="#7dd3fc" stroke-width="1.5"/>
  <rect x="140" y="100" width="680" height="48" rx="4" fill="#f0f9ff" stroke="#7dd3fc" stroke-width="1.5"/>
  <line x1="140" y1="148" x2="820" y2="148" stroke="#bae6fd"/>
  <circle cx="172" cy="124" r="6" fill="#f87171"/>
  <circle cx="196" cy="124" r="6" fill="#fbbf24"/>
  <circle cx="220" cy="124" r="6" fill="#34d399"/>
  <!-- contrast strips -->
  <g transform="translate(180 200)">
    <rect width="320" height="36" rx="3" fill="#0f172a"/>
    <rect y="52" width="260" height="36" rx="3" fill="#334155"/>
    <rect y="104" width="200" height="36" rx="3" fill="#64748b"/>
    <rect y="156" width="140" height="36" rx="3" fill="#94a3b8"/>
  </g>
  <!-- type scale lines -->
  <g transform="translate(560 210)" fill="none" stroke="#0284c7" stroke-width="2.5" stroke-linecap="round">
    <line x1="0" y1="0" x2="200" y2="0"/>
    <line x1="0" y1="28" x2="160" y2="28"/>
    <line x1="0" y1="56" x2="120" y2="56"/>
  </g>
  <!-- pass / verified -->
  <g transform="translate(640 320)">
    <circle r="52" fill="#ffffff" stroke="url(#ds-accent)" stroke-width="3"/>
    <path d="M-22 2 L-8 18 L22 -18" fill="none" stroke="#0369a1" stroke-width="5" stroke-linecap="round" stroke-linejoin="round"/>
  </g>
  <!-- token chips -->
  <g transform="translate(200 400)" font-family="system-ui, Segoe UI, sans-serif" font-size="11" font-weight="600" fill="#0c4a6e" letter-spacing="0.08em">
    <rect x="0" y="-14" width="72" height="26" rx="3" fill="#e0f2fe" stroke="#7dd3fc"/>
    <text x="10" y="4">WCAG</text>
    <rect x="88" y="-14" width="88" height="26" rx="3" fill="#e0f2fe" stroke="#7dd3fc"/>
    <text x="98" y="4">TOKENS</text>
    <rect x="192" y="-14" width="96" height="26" rx="3" fill="#e0f2fe" stroke="#7dd3fc"/>
    <text x="202" y="4">A11Y</text>
  </g>
</svg>
